<svg width="27" height="27" viewBox="0 0 27 27" fill="none" xmlns="http://www.w3.org/2000/svg">
<g id="Graph">
<path id="Path" d="M11.1139 5.1761C11.1797 5.31 11.2232 5.4534 11.2426 5.60081L11.6023 10.9482L11.7808 13.6359C11.7826 13.9123 11.826 14.1869 11.9095 14.4509C12.1251 14.9631 12.6438 15.2886 13.2081 15.2659L21.8071 14.7035C22.1795 14.6973 22.539 14.8366 22.8067 15.0906C23.0298 15.3023 23.1738 15.5792 23.2192 15.8771L23.2344 16.058C22.8786 20.9853 19.2597 25.0951 14.3426 26.156C9.42547 27.2168 4.3832 24.9758 1.95338 20.6495C1.25288 19.3926 0.815341 18.011 0.666452 16.586C0.604254 16.1641 0.576867 15.738 0.584557 15.3118C0.576878 10.0292 4.33877 5.46211 9.60472 4.36111C10.2385 4.26242 10.8598 4.59794 11.1139 5.1761Z" fill="#0F17CC"/>
<path id="Path_2" opacity="0.4" d="M14.6236 0.584554C20.5135 0.734397 25.4637 4.96972 26.4165 10.6744L26.4074 10.7165L26.3814 10.7777L26.385 10.9457C26.3715 11.1683 26.2856 11.3825 26.1375 11.5555C25.9832 11.7358 25.7724 11.8585 25.5402 11.9061L25.3987 11.9256L15.4777 12.5684C15.1477 12.6009 14.8191 12.4945 14.5737 12.2756C14.3692 12.0932 14.2384 11.8469 14.2015 11.5816L13.5356 1.67503C13.524 1.64154 13.524 1.60522 13.5356 1.57173C13.5447 1.29866 13.6649 1.04054 13.8693 0.855043C14.0738 0.669547 14.3454 0.572129 14.6236 0.584554Z" fill="#0F17CC"/>
</g>
</svg>
