<svg width="15" height="16" viewBox="0 0 15 16" fill="none" xmlns="http://www.w3.org/2000/svg">
<g id="Time Circle">
<path id="Fill 1" opacity="0.4" d="M14.5832 7.99996C14.5832 11.9128 11.412 15.0833 7.49986 15.0833C3.58773 15.0833 0.416525 11.9128 0.416525 7.99996C0.416525 4.08854 3.58773 0.916626 7.49986 0.916626C11.412 0.916626 14.5832 4.08854 14.5832 7.99996Z" fill="#FFA500"/>
<path id="Fill 4" d="M10.0312 10.7019C9.93844 10.7019 9.84494 10.6778 9.75923 10.6275L6.97831 8.9686C6.81823 8.87227 6.71977 8.69873 6.71977 8.51173V4.93677C6.71977 4.64352 6.95777 4.40552 7.25102 4.40552C7.54427 4.40552 7.78227 4.64352 7.78227 4.93677V8.20998L10.3039 9.71377C10.5554 9.86464 10.6383 10.1905 10.4881 10.4426C10.3882 10.6091 10.2119 10.7019 10.0312 10.7019Z" fill="#FFA500"/>
</g>
</svg>
