<svg width="20" height="20" viewBox="0 0 20 20" fill="none" xmlns="http://www.w3.org/2000/svg">
<path fill-rule="evenodd" clip-rule="evenodd" d="M18.3304 6.97927H14.8015C13.1593 6.98216 11.8289 8.27929 11.8259 9.88047C11.8237 11.4853 13.1556 12.7882 14.8015 12.7903H18.3333V13.0453C18.3333 15.8446 16.6363 17.5 13.7644 17.5H6.2363C3.36371 17.5 1.66667 15.8446 1.66667 13.0453V6.94822C1.66667 4.14885 3.36371 2.5 6.2363 2.5H13.7615C16.6333 2.5 18.3304 4.14885 18.3304 6.94822V6.97927ZM5.6163 6.97277H10.3163H10.3193H10.3252C10.677 6.97133 10.9615 6.69182 10.96 6.34804C10.9585 6.00498 10.6711 5.72765 10.3193 5.72909H5.6163C5.26667 5.73054 4.98297 6.00715 4.98149 6.34876C4.98001 6.69182 5.26445 6.97133 5.6163 6.97277Z" fill="#00004E"/>
<path opacity="0.4" d="M13.3645 10.2472C13.5388 11.0399 14.2337 11.5976 15.0272 11.5831H17.7354C18.0656 11.5831 18.3333 11.3097 18.3333 10.9717V8.86208C18.3326 8.52485 18.0656 8.25073 17.7354 8.25H14.9634C14.0609 8.2529 13.3319 9.00204 13.3333 9.92523C13.3333 10.0333 13.344 10.1413 13.3645 10.2472Z" fill="#00004E"/>
<circle cx="15" cy="9.91683" r="0.833333" fill="#00004E"/>
</svg>
