<svg width="18" height="16" viewBox="0 0 18 16" fill="none" xmlns="http://www.w3.org/2000/svg">
<g id="Wallet">
<path id="Fill 1" fill-rule="evenodd" clip-rule="evenodd" d="M17.3304 4.97927H13.8015C12.1593 4.98216 10.8289 6.27929 10.8259 7.88047C10.8237 9.48527 12.1556 10.7882 13.8015 10.7903H17.3333V11.0453C17.3333 13.8446 15.6363 15.5 12.7644 15.5H5.2363C2.36371 15.5 0.666672 13.8446 0.666672 11.0453V4.94822C0.666672 2.14885 2.36371 0.5 5.2363 0.5H12.7615C15.6333 0.5 17.3304 2.14885 17.3304 4.94822V4.97927ZM4.6163 4.97277H9.3163H9.31926H9.32519C9.67704 4.97133 9.96149 4.69182 9.96001 4.34804C9.95852 4.00498 9.67112 3.72765 9.31926 3.72909H4.6163C4.26667 3.73054 3.98297 4.00715 3.98149 4.34876C3.98001 4.69182 4.26445 4.97133 4.6163 4.97277Z" fill="#D5D5D5"/>
<path id="Fill 4" opacity="0.4" d="M12.3645 8.24722C12.5388 9.03988 13.2337 9.59756 14.0272 9.58306H16.7354C17.0656 9.58306 17.3333 9.30965 17.3333 8.97171V6.86208C17.3326 6.52485 17.0656 6.25073 16.7354 6.25H13.9634C13.0609 6.2529 12.3319 7.00204 12.3333 7.92523C12.3333 8.03329 12.344 8.14134 12.3645 8.24722Z" fill="#D5D5D5"/>
<circle id="Oval" cx="14" cy="7.91671" r="0.833333" fill="#D5D5D5"/>
</g>
</svg>
